<svg t="1737202348096" class="icon" viewBox="0 0 1024 1024" version="1.1" xmlns="http://www.w3.org/2000/svg" p-id="5927" xmlns:xlink="http://www.w3.org/1999/xlink" width="200" height="200"><path d="M811.818667 960H203.562667a134.72 134.72 0 0 1-134.570667-134.528V217.109333A134.741333 134.741333 0 0 1 203.562667 82.56h233.002666a45.589333 45.589333 0 0 1 0 91.178667H203.562667a43.434667 43.434667 0 0 0-43.392 43.392v608.362666a43.434667 43.434667 0 0 0 43.392 43.392h608.256a43.434667 43.434667 0 0 0 43.392-43.392V578.346667a45.589333 45.589333 0 0 1 91.178666 0v247.146666A134.741333 134.741333 0 0 1 811.818667 960zM517.802667 534.997333a45.589333 45.589333 0 0 1-32.213334-77.802666l398.933334-398.933334a45.589333 45.589333 0 0 1 64.448 64.469334l-398.933334 398.933333a45.44 45.44 0 0 1-32.213333 13.333333z m434.282666-147.306666a45.589333 45.589333 0 0 1-45.589333-45.589334V112.512H653.013333a45.589333 45.589333 0 1 1 0-91.178667h277.205334a67.52 67.52 0 0 1 67.456 67.456v253.312a45.589333 45.589333 0 0 1-45.589334 45.589334z" p-id="5928"></path></svg>